<svg id="Layer_1" height="512" viewBox="0 0 512 512" width="512" xmlns="http://www.w3.org/2000/svg" data-name="Layer 1"><path d="m123.54 109.41h-20.42a25.645 25.645 0 1 0 -51.29 0v73.16a20.415 20.415 0 0 0 -20.41.87v-74.03a46.06 46.06 0 1 1 92.12 0z" fill="#ccd3df"/><path d="m51.83 182.57a20.415 20.415 0 1 1 -9.46-2.32 20.416 20.416 0 0 1 9.46 2.32z" fill="#64b3f4"/><path d="m51.83 244.11v1.38h-20.41v-27.6a20.415 20.415 0 0 0 20.41.87z" fill="#ccd3df"/><path d="m11 245.49 11.28 47.96.67-.16h466.1l.67.16 11.28-47.96z" fill="#aaf2f0"/><path d="m489.05 293.29h-466.1l-.67.16 27.85 118.35a47.814 47.814 0 0 0 46.54 36.86h318.66a47.814 47.814 0 0 0 46.54-36.86l27.85-118.35z" fill="#ccd3df"/><path d="m42.375 207.687a7.021 7.021 0 1 1 7.021-7.021 7.029 7.029 0 0 1 -7.021 7.021z" fill="#6d7486"/><path d="m41 245.49h-30l11.28 47.96.67-.16h29.292z" fill="#88ced8"/><path d="m489.05 293.29.67.16.038-.16z" fill="#ff7885"/><path d="m80.13 411.8-27.85-118.35.67-.16h-30l-.67.16 27.85 118.35a47.814 47.814 0 0 0 46.54 36.86h30a47.814 47.814 0 0 1 -46.54-36.86z" fill="#b0b5ca"/><g fill="#284268"><path d="m333.538 299.291h33.522a6 6 0 0 0 0-12h-33.522a6 6 0 0 0 0 12z"/><path d="m126.667 412.656a41.8 41.8 0 0 1 -40.694-32.229l-4.281-18.2a6 6 0 0 0 -11.681 2.748l4.281 18.2a53.8 53.8 0 0 0 52.375 41.481 6 6 0 0 0 0-12z"/><path d="m176.257 412.656h-25.889a6 6 0 0 0 0 12h25.889a6 6 0 0 0 0-12z"/><path d="m42.375 207.687a7.021 7.021 0 1 0 -7.021-7.021 7.029 7.029 0 0 0 7.021 7.021z"/><path d="m505.7 241.76a6 6 0 0 0 -4.7-2.275h-443.167v-17.418a26.377 26.377 0 0 0 0-42.8v-69.862a19.646 19.646 0 0 1 39.291 0 6 6 0 0 0 6 6h20.417a6 6 0 0 0 6-6 52.062 52.062 0 0 0 -104.124 0v71.026a26.372 26.372 0 0 0 0 40.469v18.585h-14.417a6 6 0 0 0 -5.84 7.374l39.132 166.316a53.6 53.6 0 0 0 52.375 41.481h318.666a53.6 53.6 0 0 0 52.375-41.481l39.132-166.316a6 6 0 0 0 -1.14-5.099zm-468.283-132.355a40.064 40.064 0 0 1 79.675-6h-8.539a31.647 31.647 0 0 0 -62.72 6v65.078a25.992 25.992 0 0 0 -8.416.239zm4.958 76.844a14.417 14.417 0 1 1 -14.417 14.417 14.433 14.433 0 0 1 14.417-14.417zm-4.958 40.36a25.992 25.992 0 0 0 8.416.239v12.637h-8.416zm447.583 60.682h-95.468a6 6 0 0 0 0 12h92.644l-26.149 111.135a41.645 41.645 0 0 1 -40.694 32.23h-318.666a41.645 41.645 0 0 1 -40.694-32.229l-26.149-111.136h279.411a6 6 0 0 0 0-12h-282.235l-8.424-35.806h474.848z"/></g></svg>