<?xml version="1.0" encoding="iso-8859-1"?>
<!-- Generator: Adobe Illustrator 19.0.0, SVG Export Plug-In . SVG Version: 6.00 Build 0)  -->
<svg version="1.1" id="Capa_1" xmlns="http://www.w3.org/2000/svg" xmlns:xlink="http://www.w3.org/1999/xlink" x="0px" y="0px"
	 viewBox="0 0 496 496" style="enable-background:new 0 0 496 496;" xml:space="preserve">
<path style="fill:#AFB8C9;" d="M352,180v-16c0-8.84-7.16-16-16-16H169.888c-6.064,0-11.6,3.424-14.312,8.848l-7.152,14.312
	c-2.712,5.416-8.256,8.84-14.312,8.84H96c-8.84,0-16,7.16-16,16v168c0,8.84,7.16,16,16,16h41.376c4.24,0,8.312,1.688,11.312,4.688
	l30.624,30.624c3,3,7.072,4.688,11.312,4.688H384c8.84,0,16-7.16,16-16V212c0-8.84-7.16-16-16-16h-16C359.16,196,352,188.84,352,180
	z"/>
<g>
	<rect x="208" y="148" style="fill:#8C95A4;" width="24" height="136"/>
	<rect x="208" y="316" style="fill:#8C95A4;" width="192" height="32"/>
</g>
<path style="fill:#EFEFEF;" d="M169.888,148c-6.064,0-11.6,3.424-14.312,8.848l-7.152,14.312c-2.712,5.416-8.256,8.84-14.312,8.84
	H128v40h24c8.84,0,16,7.16,16,16v80c0,8.84-7.16,16-16,16h-24v48h9.376c4.24,0,8.312,1.688,11.312,4.688l30.624,30.624
	c3,3,7.072,4.688,11.312,4.688H208V148H169.888z"/>
<rect x="272" y="236" style="fill:#FEA82F;" width="64" height="48"/>
<rect x="208" y="284" style="fill:#FFEAA7;" width="192" height="32"/>
<g>
	<polygon style="fill:#ECECEC;" points="136,76 136,108 232,108 232,148 264,148 264,108 360,108 360,76 	"/>
	<polygon style="fill:#ECECEC;" points="40,196 8,196 8,356 40,356 40,292 80,292 80,260 40,260 	"/>
	<path style="fill:#ECECEC;" d="M480.216,221.296L480,220h-40l0.216,1.296c4.336,26.032,6.76,52.328,7.464,78.704H400v32h47.704
		c-0.624,21.496-2.408,42.944-5.456,64.248L440,412h40l2.248-15.752c3.832-26.8,5.752-53.832,5.752-80.904
		C488,283.832,485.4,252.376,480.216,221.296z"/>
</g>
<path d="M488.112,219.96L486.76,212h-56.216l1.792,10.616c3.744,22.472,6.12,45.776,7.08,69.384H408v-80c0-13.232-10.768-24-24-24
	h-16c-4.416,0-8-3.592-8-8v-16c0-13.232-10.768-24-24-24h-64v-24h96V68H128v48h96v24h-54.112c-9.152,0-17.376,5.08-21.472,13.264
	l-7.16,14.312c-1.36,2.728-4.096,4.424-7.144,4.424H96c-13.232,0-24,10.768-24,24v56H48v-64H0v176h48v-64h24v64
	c0,13.232,10.768,24,24,24h41.376c2.104,0,4.168,0.856,5.656,2.344l30.624,30.624c4.528,4.536,10.56,7.032,16.968,7.032H384
	c13.232,0,24-10.768,24-24v-64h31.408c-0.808,18.664-2.504,37.168-5.08,55.112L430.776,420h56.168l3.232-22.624
	c3.864-27.08,5.824-54.68,5.824-82.032C496,283.48,493.344,251.392,488.112,219.96z M216,308v-16h176v16H216z M232,380v32h-16v-88
	h16v40h16v-40h16v88h-16v-32H232z M280,324h16v88h-16V324z M312,324h16v88h-16V324z M328,276h-48v-32h48V276z M344,164v16
	c0,13.232,10.768,24,24,24h16c4.416,0,8,3.592,8,8v64h-48v-48h-80v48h-48v-72h112v-16H216v-32h120C340.416,156,344,159.592,344,164z
	 M144,100V84h208v16h-96v40h-16v-40H144z M32,284v64H16V204h16v64h40v16H32z M88,364V196c0-4.408,3.584-8,8-8h24v40h32
	c4.416,0,8,3.592,8,8v80c0,4.408-3.584,8-8,8h-32v48H96C91.584,372,88,368.408,88,364z M184.968,409.656l-30.624-30.624
	c-4.528-4.536-10.56-7.032-16.968-7.032H136v-32h16c13.232,0,24-10.768,24-24v-80c0-13.232-10.768-24-24-24h-16v-24.128
	c8.376-0.648,15.768-5.52,19.576-13.136l7.16-14.312c1.368-2.728,4.104-4.424,7.152-4.424H200v256h-9.376
	C188.52,412,186.464,411.144,184.968,409.656z M384,412h-8v-56h-16v56h-16v-88h16v16h16v-16h16v80C392,408.408,388.416,412,384,412z
	 M474.328,395.112L473.064,404h-23.832l0.944-6.624c3.024-21.168,4.88-43.088,5.528-65.144l0.232-8.232H408v-16h47.896l-0.216-8.216
	c-0.648-24.352-2.768-48.456-6.296-71.784H473.2c4.512,28.824,6.8,58.176,6.8,87.344C480,341.944,478.096,368.784,474.328,395.112z"
	/>
<rect x="120" y="268" width="16" height="16"/>
<rect x="232" y="244" width="16" height="16"/>
<rect x="360" y="244" width="16" height="16"/>
<g>
</g>
<g>
</g>
<g>
</g>
<g>
</g>
<g>
</g>
<g>
</g>
<g>
</g>
<g>
</g>
<g>
</g>
<g>
</g>
<g>
</g>
<g>
</g>
<g>
</g>
<g>
</g>
<g>
</g>
</svg>
