<svg xmlns="http://www.w3.org/2000/svg" xmlns:xlink="http://www.w3.org/1999/xlink" xml:space="preserve" style="shape-rendering:geometricPrecision;text-rendering:geometricPrecision;image-rendering:optimizeQuality;" viewBox="0 0 0.265984 0.38981750000000004" x="0px" y="0px" fill-rule="evenodd" clip-rule="evenodd"><defs><style type="text/css">
   
    .fil0 {fill:black}
   
  </style></defs><g><path class="fil0" d="M0.155906 0.231421c0,0.0362165 -0.0458976,0.0361575 -0.0458976,-0.00172441 0,-0.0113661 0.0155315,-0.0397244 0.0232362,-0.0530669 0.00770079,0.0133425 0.0226614,0.0411063 0.0226614,0.0547913z"/><path class="fil0" d="M0.265984 3.93701e-006l0 0.12076c0,0.0247717 -0.0202677,0.0450354 -0.0450315,0.0450354l-0.0555827 0c-0.00171654,0.0112047 -0.0303661,0.0113228 -0.0303661,-0.0013622l0 -0.0338465c0,-0.0127441 0.0292362,-0.012689 0.0304252,-0.000905512l0.019311 0c0.0451378,0 0.0451378,-0.00450787 0.0451378,-0.045126l0 -0.0845551 0.0361063 0z"/><path class="fil0" d="M-0 0.311854l0 -0.137606c0,-0.0247677 0.0202677,-0.0450315 0.0450315,-0.0450315l0.0555827 0c0.00171654,-0.0112047 0.0303661,-0.0113268 0.0303661,0.00135827l0 0.0338504c0,0.0127559 -0.0292362,0.0126969 -0.0304252,0.000901575l-0.019315 0c-0.0451378,0 -0.0451378,0.00450787 -0.0451378,0.0451299l0 0.101398 -0.0361024 0z"/></g><text x="0" y="15.311854" fill="#000000" font-size="5px" font-weight="bold" font-family="'Helvetica Neue', Helvetica, Arial-Unicode, Arial, Sans-serif">Created by Yusuf Designer</text><text x="0" y="20.311854" fill="#000000" font-size="5px" font-weight="bold" font-family="'Helvetica Neue', Helvetica, Arial-Unicode, Arial, Sans-serif">from the Noun Project</text></svg>