<svg xmlns="http://www.w3.org/2000/svg" xmlns:xlink="http://www.w3.org/1999/xlink" version="1.1" x="0px" y="0px" viewBox="0 0 128 160" style="enable-background:new 0 0 128 128;" xml:space="preserve"><g><g><g><g><ellipse cx="105.721" cy="94.822" rx="1.567" ry="1.535"/><path d="M124.478,122.976h-16.121c2.756-3.649,7.093-5.875,11.694-5.901c0.857-0.005,1.548-0.697,1.543-1.548      c-0.005-0.847-0.699-1.531-1.552-1.531c-0.003,0-0.006,0-0.009,0c-4.852,0.027-9.459,2.072-12.771,5.51l-0.016-7.934      c0.333-0.255,0.648-0.53,0.929-0.734c1.874-1.364,3.16-3.339,3.664-5.53c2.258,0.719,4.728,0.601,6.942-0.384      c0.78-0.347,2.008-0.648,2.392-1.484c0.351-0.765,0-1.916-0.094-2.714c-0.267-2.271-1.362-4.347-3.036-5.868      c1.754-1.561,2.88-3.717,3.117-6.088c0.084-0.841,0.427-2.038-0.11-2.78c-0.497-0.688-1.688-0.959-2.437-1.277      c-2.142-0.909-4.525-1.013-6.707-0.342c-0.498-2.279-1.84-4.32-3.818-5.709c-0.694-0.487-1.574-1.376-2.487-1.288      c-0.844,0.081-1.678,0.953-2.332,1.429c-1.874,1.364-3.161,3.339-3.665,5.53c-2.255-0.717-4.726-0.6-6.942,0.384      c-0.779,0.347-2.008,0.649-2.391,1.484c-0.351,0.765,0,1.916,0.094,2.714c0.267,2.271,1.361,4.347,3.036,5.868      c-1.754,1.561-2.88,3.718-3.117,6.089c-0.093,0.928-0.467,2.061,0.186,2.869c0.555,0.686,1.586,0.859,2.361,1.188      c2.141,0.909,4.525,1.013,6.707,0.342c0.609,2.787,2.386,4.66,4.606,6.303l0.016,7.91c-3.311-3.425-7.908-5.462-12.75-5.489      c-0.003,0-0.006,0-0.009,0c-0.853,0-1.547,0.683-1.552,1.531c-0.005,0.85,0.686,1.543,1.543,1.548      c4.601,0.025,8.937,2.251,11.694,5.901h-20.61c1.095-5.856,0.467-12.018-1.849-17.556c-0.323-0.772-1.212-1.136-1.99-0.816      c-0.776,0.32-1.144,1.205-0.821,1.976c2.164,5.175,2.69,10.95,1.553,16.396h-6.451c1.095-5.856,0.467-12.017-1.849-17.556      c-0.323-0.772-1.212-1.136-1.99-0.816c-0.776,0.32-1.144,1.205-0.821,1.976c2.164,5.175,2.69,10.949,1.553,16.396h-3.831      c-0.841,0-1.522,0.677-1.522,1.512S65.138,126,65.979,126h58.499c0.841,0,1.522-0.677,1.522-1.512      S125.319,122.976,124.478,122.976z M101.051,94.822c0-2.544,2.095-4.613,4.67-4.613c2.576,0,4.671,2.069,4.671,4.613      s-2.095,4.613-4.671,4.613C103.146,99.435,101.051,97.366,101.051,94.822z"/></g><g><path d="M48.218,37.557H12.063C6.514,37.557,2,32.415,2,26.096c0-5.352,3.263-9.947,7.746-11.147      c1.416-5.193,5.594-8.738,10.452-8.738c1.997,0,3.889,0.589,5.558,1.717C28.327,4.186,32.224,2,36.467,2      c6.659,0,12.257,5.418,13.437,12.792c4.79,0.912,8.377,5.621,8.377,11.304C58.281,32.415,53.767,37.557,48.218,37.557z"/><g><path d="M31.662,69.854h-3.044v-4.033h3.044V69.854z M31.662,61.789h-3.044v-4.033h3.044V61.789z M31.662,53.724h-3.044v-4.033       h3.044V53.724z M31.662,45.659h-3.044v-4.033h3.044V45.659z"/><path d="M13.723,67.35l-2.94-0.786l0.665-2.46l2.94,0.786L13.723,67.35z M15.441,60.996l-2.94-0.786l1.053-3.895l2.94,0.786       L15.441,60.996z M17.547,53.207l-2.94-0.786l1.053-3.895l2.94,0.786L17.547,53.207z M19.653,45.419l-2.94-0.786l1.053-3.895       l2.94,0.786L19.653,45.419z"/><path d="M46.557,67.35l-0.665-2.46l2.94-0.786l0.665,2.46L46.557,67.35z M44.839,60.996l-1.053-3.895l2.94-0.786l1.053,3.895       L44.839,60.996z M42.733,53.207l-1.053-3.895l2.94-0.786l1.053,3.895L42.733,53.207z M40.627,45.419l-1.053-3.895l2.94-0.786       l1.053,3.895L40.627,45.419z"/></g></g></g><g><path d="M36.811,98.793c-7.465,0.606-15.018,0.215-22.308-1.567c-3.607-0.882-7.286-2.073-10.256-4.379     c0,4.748-0.163,24.73,0,25.41c0.093,0.387-0.148,0.149,0.347,0.407c1.341,0.697,3.094,1.014,4.543,1.419     c12.086,3.373,24.949,3.776,37.224,1.173c3.039-0.644,6.039-1.47,8.979-2.473c0.907-0.309,0.694-0.443,0.694-1.337     c0-2.547,0.163-23.381,0-24.098c-0.023-0.101,0-0.23,0-0.335c-0.297,0.234-0.607,0.452-0.921,0.662     C49.539,97.386,43.094,98.284,36.811,98.793z"/><path d="M75.094,86.147h-19.55c-2.223-3.494-11.854-6.865-24.957-6.865c-14.834,0-26.34,4.503-26.34,8.377     c0,3.873,11.506,8.376,26.34,8.376c13.103,0,22.734-3.37,24.957-6.864h18.028v4.411c0,0.835,0.681,1.512,1.522,1.512     s1.522-0.677,1.522-1.512V87.66C76.616,86.825,75.935,86.147,75.094,86.147z"/></g></g></g><text x="0" y="143" fill="#000000" font-size="5px" font-weight="bold" font-family="'Helvetica Neue', Helvetica, Arial-Unicode, Arial, Sans-serif">Created by SBTS</text><text x="0" y="148" fill="#000000" font-size="5px" font-weight="bold" font-family="'Helvetica Neue', Helvetica, Arial-Unicode, Arial, Sans-serif">from the Noun Project</text></svg>