<svg id="Layer_1" height="512" viewBox="0 0 512 512" width="512" xmlns="http://www.w3.org/2000/svg" data-name="Layer 1"><path d="m427.5 264.2h-343a13.24 13.24 0 1 0 0 26.48h343a13.24 13.24 0 0 0 0-26.48z" fill="#a0eaea"/><path d="m89.22 290.68v28.41a75.45 75.45 0 0 0 75.45 75.45h182.66a75.45 75.45 0 0 0 75.45-75.45v-28.41z" fill="#fb6771"/><path d="m341.6 125.47h44.89v22h-44.89z" fill="#6d7486"/><path d="m309.42 15.18a68.159 68.159 0 0 0 -68.08 68.09v180.93h26.93v-180.93a41.155 41.155 0 0 1 82.31 0v42.2h26.93v-42.2a68.161 68.161 0 0 0 -68.09-68.09z" fill="#b0b5ca"/><path d="m274.85 394.54v34.12h25.92a10 10 0 0 0 10-10v-24.12z" fill="#a0eaea"/><path d="m221.13 428.66v33.29a34.87 34.87 0 1 0 69.74 0v-33.29z" fill="#a0eaea"/><path d="m237.15 394.54h37.7v34.12h-37.7z" fill="#88ced8"/><path d="m240.66 184.54h-35.24v46.88h35.24.68v-46.88z" fill="#6d7486"/><path d="m201.23 394.54v24.12a10 10 0 0 0 10 10h25.92v-34.12z" fill="#a0eaea"/><path d="m205.42 195.73v25.15h-.9-34.12v-25.15h34.12z" fill="#b0b5ca"/><path d="m241.23 428.66a9.944 9.944 0 0 1 -4.08-.877v.877z" fill="none"/><path d="m101.26 277.44a13.247 13.247 0 0 1 13.24-13.24h-30a13.24 13.24 0 1 0 0 26.48h30a13.236 13.236 0 0 1 -13.24-13.24z" fill="#79c1c6"/><path d="m119.22 319.09v-28.41h-30v28.41a75.45 75.45 0 0 0 75.45 75.45h30a75.45 75.45 0 0 1 -75.45-75.45z" fill="#d8445d"/><path d="m251.13 461.95v-33.29h-30v33.29a34.881 34.881 0 0 0 49.87 31.485 34.869 34.869 0 0 1 -19.87-31.485z" fill="#79c1c6"/><path d="m237.15 427.783a10 10 0 0 1 -5.92-9.123v-24.12h-30v24.12a10 10 0 0 0 10 10h25.92z" fill="#79c1c6"/><g fill="#284268"><path d="m337.164 284.683h-18.639a6 6 0 0 0 0 12h18.639a6 6 0 0 0 0-12z"/><path d="m427.5 258.2h-153.229v-174.931a35.154 35.154 0 0 1 70.307 0v36.2h-2.978a6 6 0 0 0 -6 6v22a6 6 0 0 0 6 6h44.894a6 6 0 0 0 6-6v-22a6 6 0 0 0 -6-6h-2.979v-36.2a74.09 74.09 0 1 0 -148.18 0v95.272h-29.918a6 6 0 0 0 -6 6v5.194h-23.017v-18.663a6 6 0 0 0 -12 0v73.819a6 6 0 1 0 12 0v-18.016h23.016v4.548a6 6 0 0 0 6 6h29.918v20.777h-150.834a19.229 19.229 0 0 0 -1.283 38.416v22.47a81.544 81.544 0 0 0 81.451 81.451h30.562v18.117a16.018 16.018 0 0 0 16 16h3.9v27.3a40.868 40.868 0 1 0 81.736 0v-27.3h3.9a16.018 16.018 0 0 0 16-16v-18.115h30.564a81.544 81.544 0 0 0 81.451-81.451v-22.47a19.229 19.229 0 0 0 -1.281-38.418zm-228.083-43.325h-23.017v-13.14h23.016zm181.077-73.407h-32.894v-10h32.894zm-133.159-58.2a62.09 62.09 0 1 1 124.18 0v36.2h-14.937v-36.2a47.154 47.154 0 0 0 -94.307 0v174.932h-14.936zm-35.918 142.155v-34.882h23.918v34.882zm-.185 197.233a4 4 0 0 1 -4-4v-18.117h23.915v22.117zm73.636 39.3a28.868 28.868 0 1 1 -57.736 0v-27.3h57.736zm-41.721-39.3v-22.117h25.706v22.117zm61.622-4a4 4 0 0 1 -4 4h-19.916v-22.117h23.916zm122.731-133.973h-69.77a6 6 0 0 0 0 12h59.051v22.405a69.53 69.53 0 0 1 -69.451 69.451h-182.66a69.53 69.53 0 0 1 -69.451-69.451v-22.405h203.381a6 6 0 0 0 0-12h-214.1a7.241 7.241 0 1 1 0-14.481h343a7.241 7.241 0 0 1 0 14.481z"/></g></svg>