<svg height="512" viewBox="0 0 128 128" width="512" xmlns="http://www.w3.org/2000/svg"><g><path d="m117.058 118.5h-6v-42.5a9.01 9.01 0 0 0 -9-9h-19.833v-6h19.833a15.017 15.017 0 0 1 15 15z" fill="#eaeaf0"/><path d="m10.942 118.5h6v-42.5a9.01 9.01 0 0 1 9-9h19.833v-6h-19.833a15.017 15.017 0 0 0 -15 15z" fill="#eaeaf0"/><path d="m61 6.5h6v8.641h-6z" fill="#0e8bce"/><path d="m27.193 24.192h73.615v94.308h-73.615z" fill="#3ba9fd"/><path d="m94.808 96.47a1.75 1.75 0 0 1 -1.75-1.75v-7a1.75 1.75 0 0 1 3.5 0v7a1.751 1.751 0 0 1 -1.75 1.75z" fill="#0e8bce"/><path d="m39.193 12.5h49.614a12 12 0 0 1 12 12v3a0 0 0 0 1 0 0h-73.614a0 0 0 0 1 0 0v-3a12 12 0 0 1 12-12z" fill="#3ba9fd"/><path d="m6.5 115.5h115v6h-115z" fill="#0e8bce"/><path d="m24.192 24.192h79.615v6h-79.615z" fill="#0e8bce"/><path d="m72 28.442a1.75 1.75 0 0 0 -1.75 1.75v7.729h-12.5v-7.729a1.75 1.75 0 0 0 -3.5 0v85.308a1.75 1.75 0 0 0 3.5 0v-7.729h12.5v7.729a1.75 1.75 0 0 0 3.5 0v-85.308a1.75 1.75 0 0 0 -1.75-1.75zm-14.25 47.393v-5.978h12.5v5.978zm12.5 3.5v5.979h-12.5v-5.979zm-12.5-12.978v-5.979h12.5v5.979zm0-9.479v-5.978h12.5v5.979zm0 31.936h12.5v5.979h-12.5zm12.5-47.393v5.979h-12.5v-5.979zm-12.5 62.85v-5.978h12.5v5.978z" fill="#eaeaf0"/></g></svg>